# xmcd CD database file
#
# Track frame offsets:
#	150
#	49857
#	72354
#	113824
#	126781
#	171248
#
# Disc length: 2598 seconds
#
# Revision: 0
# Processed by: cddbd v1.5PL3 Copyright (c) Steve Scherf et al.
# Submitted via: CDex 1.51
#
DISCID=520a2406
DTITLE=Chick Corea and return to forever - light as a feather
DYEAR=1973
DGENRE=Jazz
TTITLE0=You're everything
TTITLE1=Light as a feather
TTITLE2=Captain Marvel
TTITLE3=500 Miles high
TTITLE4=Children's Song
TTITLE5=Spain
EXTD=YEAR: 1973
EXTT0=
EXTT1=
EXTT2=
EXTT3=
EXTT4=
EXTT5=
PLAYORDER=
